<svg width="21" height="21" viewBox="0 0 21 21" fill="none" xmlns="http://www.w3.org/2000/svg">
<g id="fi:more-vertical">
<path id="Vector" d="M17.1667 10.2109C17.1667 9.75062 16.7936 9.37752 16.3333 9.37752C15.8731 9.37752 15.5 9.75062 15.5 10.2109C15.5 10.6711 15.8731 11.0442 16.3333 11.0442C16.7936 11.0442 17.1667 10.6711 17.1667 10.2109Z" stroke="#546371" stroke-width="2" stroke-linecap="round" stroke-linejoin="round"/>
<path id="Vector_2" d="M11.3337 10.2109C11.3337 9.75062 10.9606 9.37752 10.5003 9.37752C10.0401 9.37752 9.66699 9.75062 9.66699 10.2109C9.66699 10.6711 10.0401 11.0442 10.5003 11.0442C10.9606 11.0442 11.3337 10.6711 11.3337 10.2109Z" stroke="#546371" stroke-width="2" stroke-linecap="round" stroke-linejoin="round"/>
<path id="Vector_3" d="M5.49967 10.2109C5.49967 9.75062 5.12658 9.37752 4.66634 9.37752C4.2061 9.37752 3.83301 9.75062 3.83301 10.2109C3.83301 10.6711 4.2061 11.0442 4.66634 11.0442C5.12658 11.0442 5.49967 10.6711 5.49967 10.2109Z" stroke="#546371" stroke-width="2" stroke-linecap="round" stroke-linejoin="round"/>
</g>
</svg>
