<svg width="24" height="24" viewBox="0 0 24 24" fill="none" xmlns="http://www.w3.org/2000/svg">
<g id="u:angle-left-b">
<path id="Vector" d="M18.0431 9.44964L12.466 15.1264C12.3016 15.2515 12.1421 15.3 11.9998 15.3C11.8575 15.3 11.698 15.2515 11.5336 15.1264L5.95647 9.44964L5.95649 9.44962L5.95336 9.4465C5.88287 9.37601 5.8499 9.3254 5.83171 9.28448C5.81449 9.24573 5.7998 9.19171 5.7998 9.10005C5.7998 9.00839 5.81449 8.95436 5.83171 8.91562C5.8499 8.8747 5.88288 8.82408 5.95336 8.7536L5.61146 8.4117L5.95336 8.7536C6.1581 8.54886 6.44151 8.54886 6.64625 8.7536L6.64623 8.75362L6.64984 8.75715L11.6498 13.6572L11.9998 14.0001L12.3498 13.6572L17.3498 8.75715L17.3498 8.75717L17.3534 8.7536C17.5581 8.54886 17.8415 8.54886 18.0463 8.7536C18.251 8.95834 18.251 9.24176 18.0463 9.4465L18.0431 9.44964Z" fill="#546371" stroke="#546371"/>
</g>
</svg>
